<svg width="64" height="64" viewBox="0 0 64 64" fill="none" xmlns="http://www.w3.org/2000/svg">
  <defs>
    <!-- outer shell, much softer -->
    <linearGradient id="outerShell" x1="12" y1="6" x2="52" y2="58" gradientUnits="userSpaceOnUse">
      <stop stop-color="#3F7FC8"></stop>
      <stop offset="0.5" stop-color="#5FA8E8"></stop>
      <stop offset="1" stop-color="#AEE7E6"></stop>
    </linearGradient>

    <!-- main fill -->
    <linearGradient id="markerBg" x1="15" y1="9" x2="49" y2="55" gradientUnits="userSpaceOnUse">
      <stop stop-color="#4A90E2"></stop>
      <stop offset="0.58" stop-color="#8FD0EE"></stop>
      <stop offset="1" stop-color="#DFF8EA"></stop>
    </linearGradient>

    <!-- inner ring -->
    <linearGradient id="circleRing" x1="18" y1="10" x2="46" y2="37" gradientUnits="userSpaceOnUse">
      <stop stop-color="#4B8FD8"></stop>
      <stop offset="0.5" stop-color="#7FC2EA"></stop>
      <stop offset="1" stop-color="#D3F3E5"></stop>
    </linearGradient>

    <filter id="shadow" x="1" y="1" width="62" height="64" filterUnits="userSpaceOnUse" color-interpolation-filters="sRGB">
      <feFlood flood-opacity="0" result="bg"></feFlood>
      <feColorMatrix in="SourceAlpha" type="matrix" values="0 0 0 0 0
                0 0 0 0 0
                0 0 0 0 0
                0 0 0 127 0" result="alpha"></feColorMatrix>
      <feOffset dy="3"></feOffset>
      <feGaussianBlur stdDeviation="3"></feGaussianBlur>
      <feColorMatrix type="matrix" values="0 0 0 0 0.15
                0 0 0 0 0.28
                0 0 0 0 0.46
                0 0 0 0.14 0"></feColorMatrix>
      <feBlend in2="bg" result="shadow"></feBlend>
      <feBlend in="SourceGraphic" in2="shadow" result="shape"></feBlend>
    </filter>

    <clipPath id="innerCircleClip">
      <circle cx="32" cy="24" r="14.5"></circle>
    </clipPath>
  </defs>

  <g filter="url(#shadow)">
    <!-- soft outer edge -->
    <path d="M32 5.6C21.1 5.6 12.4 14.3 12.4 25.1C12.4 39 28.9 55.2 30.8 57C31.5 57.7 32.5 57.7 33.2 57C35.1 55.2 51.6 39 51.6 25.1C51.6 14.3 42.9 5.6 32 5.6Z" fill="url(#outerShell)"></path>

    <!-- main marker over it -->
    <path d="M32 6.9C21.8 6.9 13.6 15.1 13.6 25.1C13.6 38.2 29.2 53.8 31.1 55.6C31.6 56.1 32.4 56.1 32.9 55.6C34.8 53.8 50.4 38.2 50.4 25.1C50.4 15.1 42.2 6.9 32 6.9Z" fill="url(#markerBg)"></path>

    <!-- circle ring -->
    <circle cx="32" cy="24" r="15.2" fill="url(#circleRing)"></circle>
    <circle cx="32" cy="24" r="14.3" fill="#EDEDED"></circle>

    <!-- hospital inside -->
    <g clip-path="url(#innerCircleClip)">
      <rect x="17.5" y="9.5" width="29" height="29" fill="#E9E9E9"></rect>

      <rect x="18.8" y="22.8" width="7.6" height="11.2" fill="#F7F7F7" stroke="#D4D4D4" stroke-width="0.4"></rect>
      <rect x="18.1" y="21.8" width="8.8" height="1.1" rx="0.5" fill="#6B6B6B"></rect>

      <rect x="26.5" y="17.4" width="11" height="16.6" fill="#FAFAFA" stroke="#D4D4D4" stroke-width="0.4"></rect>
      <rect x="25.9" y="16.2" width="12.2" height="1.2" rx="0.5" fill="#6B6B6B"></rect>

      <rect x="37.6" y="22.8" width="7.6" height="11.2" fill="#F7F7F7" stroke="#D4D4D4" stroke-width="0.4"></rect>
      <rect x="36.9" y="21.8" width="8.8" height="1.1" rx="0.5" fill="#6B6B6B"></rect>

      <circle cx="32" cy="14.8" r="4.8" fill="#FF4D4D"></circle>
      <rect x="31" y="11.9" width="2" height="5.8" rx="0.25" fill="white"></rect>
      <rect x="29.1" y="13.8" width="5.8" height="2" rx="0.25" fill="white"></rect>

      <rect x="20.3" y="24.8" width="2" height="2.2" fill="#74D2F6"></rect>
      <rect x="23.1" y="24.8" width="2" height="2.2" fill="#74D2F6"></rect>
      <rect x="20.3" y="28.5" width="2" height="2.2" fill="#74D2F6"></rect>
      <rect x="23.1" y="28.5" width="2" height="2.2" fill="#74D2F6"></rect>

      <rect x="27.9" y="20.1" width="2" height="2.2" fill="#74D2F6"></rect>
      <rect x="31" y="20.1" width="2" height="2.2" fill="#74D2F6"></rect>
      <rect x="34.1" y="20.1" width="2" height="2.2" fill="#74D2F6"></rect>

      <rect x="27.9" y="24.1" width="2" height="2.2" fill="#74D2F6"></rect>
      <rect x="31" y="24.1" width="2" height="2.2" fill="#74D2F6"></rect>
      <rect x="34.1" y="24.1" width="2" height="2.2" fill="#74D2F6"></rect>

      <rect x="27.9" y="28.1" width="2" height="2.2" fill="#74D2F6"></rect>
      <rect x="34.1" y="28.1" width="2" height="2.2" fill="#74D2F6"></rect>

      <rect x="30.5" y="27.6" width="3" height="6.4" fill="#74D2F6"></rect>

      <rect x="39.1" y="24.8" width="2" height="2.2" fill="#74D2F6"></rect>
      <rect x="41.9" y="24.8" width="2" height="2.2" fill="#74D2F6"></rect>
      <rect x="39.1" y="28.5" width="2" height="2.2" fill="#74D2F6"></rect>
      <rect x="41.9" y="28.5" width="2" height="2.2" fill="#74D2F6"></rect>

      <rect x="17.5" y="34" width="29" height="1.8" fill="#6B6B6B"></rect>
    </g>
  </g>
</svg>